<svg width="600" height="300" viewBox="0 0 600 300" xmlns="http://www.w3.org/2000/svg"><defs><filter x="-57.3%" y="-64.2%" width="214.6%" height="228.3%" filterUnits="objectBoundingBox" id="a"><feOffset dy="8" in="SourceAlpha" result="shadowOffsetOuter1"/><feGaussianBlur stdDeviation="16" in="shadowOffsetOuter1" result="shadowBlurOuter1"/><feColorMatrix values="0 0 0 0 0 0 0 0 0 0 0 0 0 0 0 0 0 0 0.1 0" in="shadowBlurOuter1" result="shadowMatrixOuter1"/><feMerge><feMergeNode in="shadowMatrixOuter1"/><feMergeNode in="SourceGraphic"/></feMerge></filter><linearGradient x1="24.565%" y1="22.02%" x2="83.238%" y2="86.518%" id="b"><stop stop-color="#FFA936" offset="0%"/><stop stop-color="#FF8548" offset="41.12%"/><stop stop-color="#FF6C54" offset="77.81%"/><stop stop-color="#FF6359" offset="100%"/></linearGradient><linearGradient x1="52.164%" y1="47.311%" x2="48.183%" y2="50.515%" id="c"><stop stop-color="#F82814" stop-opacity="0" offset="0%"/><stop stop-color="#C0272D" offset="100%"/></linearGradient><linearGradient x1="17.693%" y1="30.221%" x2="92.209%" y2="75.839%" id="d"><stop stop-color="#CDEC7A" offset="0%"/><stop stop-color="#B0E995" offset="21.57%"/><stop stop-color="#87E4BB" offset="56.13%"/><stop stop-color="#6EE1D2" offset="83.47%"/><stop stop-color="#65E0DB" offset="100%"/></linearGradient><linearGradient x1="64.844%" y1="50%" x2="-13.932%" y2="50%" id="e"><stop stop-color="#CDEC7A" stop-opacity="0" offset="0%"/><stop stop-color="#9AD57D" stop-opacity=".235" offset="23.54%"/><stop stop-color="#51B482" stop-opacity=".604" offset="60.35%"/><stop stop-color="#239F85" stop-opacity=".868" offset="86.79%"/><stop stop-color="#119786" offset="100%"/></linearGradient><linearGradient x1="50%" y1="55.566%" x2="50%" y2="-9.612%" id="f"><stop stop-color="#CDEC7A" stop-opacity="0" offset="0%"/><stop stop-color="#9AD57D" stop-opacity=".235" offset="23.54%"/><stop stop-color="#51B482" stop-opacity=".604" offset="60.35%"/><stop stop-color="#239F85" stop-opacity=".868" offset="86.79%"/><stop stop-color="#119786" offset="100%"/></linearGradient><linearGradient x1="19.121%" y1="23.61%" x2="90.315%" y2="84.454%" id="g"><stop stop-color="#F8F6FB" offset="0%"/><stop stop-color="#EFDCFB" offset="100%"/></linearGradient><linearGradient x1="19.511%" y1="16.101%" x2="102.476%" y2="108.347%" id="h"><stop stop-color="#18CEFB" offset="0%"/><stop stop-color="#2BB9F9" offset="29.69%"/><stop stop-color="#42A0F7" offset="73.45%"/><stop stop-color="#4A97F6" offset="100%"/></linearGradient><linearGradient x1="17.508%" y1="41.26%" x2="82.493%" y2="98.189%" id="i"><stop stop-color="#CDEC7A" offset="0%"/><stop stop-color="#B0E995" stop-opacity=".784" offset="21.54%"/><stop stop-color="#87E4BB" stop-opacity=".439" offset="56.04%"/><stop stop-color="#6EE1D2" stop-opacity=".165" offset="83.34%"/><stop stop-color="#65E0DB" stop-opacity="0" offset="99.85%"/></linearGradient><linearGradient x1="31.46%" y1="46.627%" x2="83.27%" y2="93.32%" id="j"><stop stop-color="#CDEC7A" offset="0%"/><stop stop-color="#B0E995" offset="21.57%"/><stop stop-color="#87E4BB" offset="56.13%"/><stop stop-color="#6EE1D2" offset="83.47%"/><stop stop-color="#65E0DB" offset="100%"/></linearGradient><linearGradient x1="25.157%" y1="17.681%" x2="92.757%" y2="105.629%" id="k"><stop stop-color="#FFD945" offset="0%"/><stop stop-color="#FFCD3E" offset="30.43%"/><stop stop-color="#FFAD2B" offset="85.58%"/><stop stop-color="#FFA325" offset="100%"/></linearGradient></defs><g fill="none" fill-rule="evenodd"><path fill="#F2F2F2" d="M0 0h600v300H0z"/><g filter="url(#a)" transform="translate(233 90)" fill-rule="nonzero"><path d="M111.6 116.203L10.468 104.995a8.858 8.858 0 0 1-7.828-9.78l9.295-83.868a8.858 8.858 0 0 1 9.78-7.828l101.13 11.208a8.858 8.858 0 0 1 7.828 9.78l-9.295 83.868a8.857 8.857 0 0 1-9.78 7.828z" fill="url(#b)"/><path d="M130.674 24.507l-3.665 33.076-8.146-43.297 3.984.441c4.861.538 8.365 4.916 7.827 9.78z" fill="url(#c)"/><path d="M126.093 100.624l-99.995 18.811a8.858 8.858 0 0 1-10.343-7.067L.155 29.44a8.858 8.858 0 0 1 7.067-10.343L107.217.286a8.858 8.858 0 0 1 10.343 7.068l15.6 82.927a8.858 8.858 0 0 1-7.067 10.343z" fill="url(#d)"/><path d="M119.695 18.702v83.126l6.398-1.204a8.858 8.858 0 0 0 7.067-10.343l-13.465-71.579z" fill="url(#e)"/><path d="M15.279 109.838l.476 2.53a8.858 8.858 0 0 0 10.343 7.067l51.019-9.597H15.279z" fill="url(#f)"/><g transform="translate(0 8.103)"><path d="M110.837 102.251H9.087A8.858 8.858 0 0 1 .23 93.394V9.012A8.858 8.858 0 0 1 9.088.154h101.749a8.858 8.858 0 0 1 8.858 8.858v84.382a8.858 8.858 0 0 1-8.858 8.857z" fill="url(#g)"/><path d="M102.542 93.928h-85.16a7.414 7.414 0 0 1-7.413-7.413V15.89a7.414 7.414 0 0 1 7.413-7.414h85.16a7.414 7.414 0 0 1 7.414 7.414v70.624a7.414 7.414 0 0 1-7.414 7.413z" fill="url(#h)"/><path d="M55.958 58.64H7.45a7.414 7.414 0 0 1-7.415-7.414V39.65l12.307-14.96c4.061-4.941 11.622-4.941 15.686 0l7.663 9.316L55.958 58.64z" fill="url(#i)" transform="translate(9.933 35.29)"/><path d="M100.023 32.61v18.616a7.414 7.414 0 0 1-7.415 7.413H15.424l20.267-24.634L60.588 3.74C64.65-1.2 72.213-1.2 76.275 3.74l23.748 28.87z" fill="url(#j)" transform="translate(9.933 35.29)"/><circle fill="url(#k)" cx="35.871" cy="26.38" r="10.513"/></g></g></g></svg>