<svg width="64" height="64" xmlns="http://www.w3.org/2000/svg">

 <g>
  <title>background</title>
  <rect fill="none" id="canvas_background" height="402" width="582" y="-1" x="-1"/>
 </g>
 <g>
  <title>Layer 1</title>
  <path id="svg_1" fill="#656d78" d="m45.009,47.831l2.83,-2.82l1.41,-1.42l12.58,12.58c1.56,1.56 1.56,4.09 0,5.66c-1.561,1.56 -4.1,1.56 -5.66,0l-12.58,-12.58l1.42,-1.42z"/>
  <path id="svg_2" fill="#ccd1d9" d="m47.839,45.011l-2.83,2.82l-4.51,-4.511c0.51,-0.43 1,-0.88 1.47,-1.35c0.48,-0.479 0.931,-0.97 1.351,-1.479l4.51,4.51l0.009,0.01z"/>
  <path id="svg_3" fill="#e6e9ed" d="m39.849,39.851c8.2,-8.2 8.2,-21.5 0,-29.7c-8.199,-8.199 -21.5,-8.199 -29.699,0c-8.2,8.2 -8.2,21.5 0,29.7c8.199,8.2 21.499,8.2 29.699,0zm2.12,-31.821c8.891,8.891 9.351,23.03 1.351,32.461c-0.42,0.51 -0.87,1 -1.351,1.479c-0.47,0.47 -0.96,0.92 -1.47,1.35c-9.42,8 -23.57,7.551 -32.47,-1.35c-9.37,-9.37 -9.37,-24.57 0,-33.94c9.37,-9.369 24.57,-9.38 33.94,0z"/>
  <path id="svg_4" fill="#5d9cec" d="m39.849,10.15c8.2,8.2 8.2,21.5 0,29.7c-8.199,8.2 -21.5,8.2 -29.699,0c-8.2,-8.2 -8.2,-21.5 0,-29.7c8.199,-8.199 21.499,-8.199 29.699,0zm0.15,14.851c0,-8.28 -6.72,-15 -15,-15s-15,6.72 -15,15c0,8.279 6.72,15 15,15s15,-6.721 15,-15z"/>
  <path id="svg_5" fill="#e6e9ed" d="m24.999,10.001c8.28,0 15,6.72 15,15c0,8.279 -6.72,15 -15,15s-15,-6.721 -15,-15c0,-8.28 6.72,-15 15,-15z"/>
  <path id="svg_6" d="m25,46.998c-5.877,0 -11.401,-2.288 -15.557,-6.443c-4.155,-4.154 -6.443,-9.678 -6.443,-15.556c0,-5.877 2.288,-11.401 6.443,-15.556c4.156,-4.155 9.68,-6.443 15.557,-6.443s11.401,2.288 15.557,6.443c8.577,8.577 8.577,22.534 0,31.111c-4.156,4.156 -9.68,6.444 -15.557,6.444zm0,-41.998c-5.343,0 -10.365,2.08 -14.143,5.857c-3.777,3.777 -5.857,8.799 -5.857,14.142s2.08,10.365 5.857,14.142s8.8,5.857 14.143,5.857s10.365,-2.08 14.143,-5.857c7.798,-7.798 7.798,-20.485 0,-28.283c-3.778,-3.778 -8.8,-5.858 -14.143,-5.858z"/>
  <path stroke="null" id="svg_7" d="m25,49.998c-6.678,0 -12.956,-2.6 -17.678,-7.321s-7.321,-11 -7.322,-17.678c0,-6.678 2.601,-12.956 7.322,-17.677c4.723,-4.721 11.001,-7.322 17.678,-7.322c6.678,0 12.956,2.601 17.678,7.322c9.747,9.747 9.747,25.606 0,35.354c-4.723,4.722 -11.001,7.322 -17.678,7.322zm0,-47.998c-6.143,0 -11.919,2.393 -16.264,6.736c-4.343,4.344 -6.736,10.119 -6.736,16.263c0.001,6.144 2.393,11.92 6.736,16.264s10.12,6.735 16.264,6.735c6.143,0 11.919,-2.392 16.264,-6.735c8.967,-8.968 8.967,-23.56 0,-32.526c-4.344,-4.344 -10.12,-6.737 -16.264,-6.737z"/>
  <path id="svg_8" d="m45.006,48.834c-0.256,0 -0.512,-0.098 -0.707,-0.293l-4.508,-4.509c-0.391,-0.391 -0.391,-1.023 0,-1.414s1.023,-0.391 1.414,0l4.508,4.509c0.391,0.391 0.391,1.023 0,1.414c-0.195,0.195 -0.451,0.293 -0.707,0.293z"/>
  <path id="svg_9" d="m47.834,46.006c-0.256,0 -0.512,-0.098 -0.707,-0.293l-4.514,-4.515c-0.391,-0.391 -0.391,-1.023 0,-1.414s1.023,-0.391 1.414,0l4.514,4.515c0.391,0.391 0.391,1.023 0,1.414c-0.195,0.195 -0.451,0.293 -0.707,0.293z"/>
  <path id="svg_10" d="m43.592,50.248c-0.256,0 -0.512,-0.098 -0.707,-0.293c-0.391,-0.391 -0.391,-1.023 0,-1.414l5.656,-5.658c0.391,-0.391 1.023,-0.391 1.414,0s0.391,1.023 0,1.414l-5.656,5.658c-0.195,0.195 -0.451,0.293 -0.707,0.293z"/>
  <path id="svg_11" d="m56.172,62.828c-0.256,0 -0.512,-0.098 -0.707,-0.293l-12.58,-12.58c-0.391,-0.391 -0.391,-1.023 0,-1.414s1.023,-0.391 1.414,0l12.58,12.58c0.391,0.391 0.391,1.023 0,1.414c-0.195,0.195 -0.451,0.293 -0.707,0.293z"/>
  <path id="svg_12" d="m61.828,57.173c-0.256,0 -0.512,-0.098 -0.707,-0.293l-12.58,-12.583c-0.391,-0.391 -0.391,-1.023 0,-1.414s1.023,-0.391 1.414,0l12.58,12.583c0.391,0.391 0.391,1.023 0,1.414c-0.195,0.195 -0.451,0.293 -0.707,0.293z"/>
  <path id="svg_13" d="m59.001,64c-1.336,0 -2.592,-0.521 -3.536,-1.465c-0.391,-0.391 -0.391,-1.023 0,-1.414s1.023,-0.391 1.414,0c1.133,1.132 3.11,1.136 4.241,0c0.567,-0.566 0.88,-1.32 0.88,-2.122c0,-0.801 -0.312,-1.553 -0.878,-2.118c-0.392,-0.391 -0.392,-1.023 -0.002,-1.414c0.391,-0.393 1.025,-0.391 1.414,-0.002c0.945,0.943 1.466,2.198 1.466,3.534s-0.521,2.592 -1.465,3.536c-0.943,0.944 -2.198,1.465 -3.534,1.465z"/>
  <path id="svg_14" d="m25,41c-8.822,0 -16,-7.178 -16,-16s7.178,-16 16,-16s16,7.178 16,16s-7.178,16 -16,16zm0,-30c-7.72,0 -14,6.28 -14,14s6.28,14 14,14s14,-6.28 14,-14s-6.28,-14 -14,-14z"/>
  <text stroke="null" transform="rotate(45 46.88928604125979,50.62957763671874) matrix(0.7335539460182189,0,0,0.6414669752120972,11.953777432977157,17.859636031567337) " xml:space="preserve" text-anchor="start" font-family="Helvetica, Arial, sans-serif" font-size="1" id="svg_20" y="51.44532" x="44.401522" fill-opacity="null" stroke-opacity="null" stroke-width="0" fill="#000000">@thun888.xyz</text>
 </g>
</svg>