<svg width="512" height="512" xmlns="http://www.w3.org/2000/svg">

 <g>
  <title>background</title>
  <rect fill="none" id="canvas_background" height="402" width="582" y="-1" x="-1"/>
 </g>
 <g>
  <title>Layer 1</title>
  <g id="svg_1">
   <path id="svg_2" fill="#E6E6E6" d="m376.541,317.052c-9.09,12.486 -19.397,25.025 -30.867,36.495l-39.369,-118.936l68.672,0l48.125,0c0,0 -16.47,40.973 -46.561,82.441z"/>
   <path id="svg_3" fill="#E6E6E6" d="m376.541,317.052c30.092,-41.468 46.561,-82.441 46.561,-82.441l-48.125,0l-68.672,0l-43.821,-132.345l207.848,0c17.472,0 31.642,14.17 31.642,31.642l0,332.412c0,17.472 -14.17,31.642 -31.642,31.642l-188.933,0l82.883,-88.23l-18.608,-56.186c11.469,-11.468 21.776,-24.008 30.867,-36.494z"/>
  </g>
  <polygon id="svg_4" fill="#3A5BBC" points="364.282,409.734 281.399,497.963 252.043,409.734 "/>
  <path stroke="null" id="svg_5" fill="#518EF8" d="m345.674,354.10256l18.608,56.186l-112.239,0l-210.374,0c-17.486,0 -31.642,-14.17 -31.642,-31.642l0,-332.412c0,-17.472 14.157,-31.642 31.642,-31.642l191.606,0l29.209,88.23l43.821,132.345l39.369,118.935z"/>
  <path id="svg_7" fill="#333333" d="m470.261227,90.924587l-200.603,0l-26.935,-81.355c-1.358,-4.104 -5.195,-6.875 -9.518,-6.875l-191.606,0c-22.976,0 -41.669,18.693 -41.669,41.669l0,332.412c0,22.976 18.693,41.668 41.669,41.668l203.145,0l27.073,81.369c1.364,4.097 5.195,6.861 9.513,6.861l188.932,0c22.976,0 41.669,-18.693 41.669,-41.669l0,-332.411c-0.001,-22.976 -18.694,-41.669 -41.67,-41.669zm-450.279,285.851l0,-332.412c0,-11.919 9.697,-21.616 21.616,-21.616l184.364,0l110.024,332.32c0.011,0.037 0.025,0.072 0.036,0.11l14.307,43.215l-308.73,0c-11.92,0 -21.617,-9.698 -21.617,-21.617zm245.894,41.669l75.162,0l-55.503,59.085l-19.659,-59.085zm226.002,46.561c0,11.919 -9.697,21.616 -21.616,21.616l-165.758,0l67.015,-71.339l-0.004,-0.004c0.293,-0.311 0.571,-0.64 0.825,-0.992c1.885,-2.609 2.402,-5.966 1.39,-9.022l-16.687,-50.405l-43.569,-131.59l-37.178,-112.292l193.965,0c11.919,0 21.616,9.697 21.616,21.616l0,332.412l0.001,0z"/>
  <g id="svg_8"/>
  <g id="svg_9"/>
  <g id="svg_10"/>
  <g id="svg_11"/>
  <g id="svg_12"/>
  <g id="svg_13"/>
  <g id="svg_14"/>
  <g id="svg_15"/>
  <g id="svg_16"/>
  <g id="svg_17"/>
  <g id="svg_18"/>
  <g id="svg_19"/>
  <g id="svg_20"/>
  <g id="svg_21"/>
  <g id="svg_22"/>
  <text stroke="null" transform="rotate(60.00666046142578 156.667724609375,81.64123535156249) matrix(3.231544225500482,0,0,5.582467692677888,-200.79661520930648,-830.4380355208332) " font-style="normal" font-weight="normal" xml:space="preserve" text-anchor="start" font-family="Arvo, sans-serif" font-size="24" id="svg_25" y="171.668945" x="104.053539" fill-opacity="null" stroke-opacity="null" stroke-width="0" fill="#000000"/>
  <text stroke="null" transform="matrix(5.672945499420166,0,0,5.915319442749023,-356.3851091042161,-637.5322920978069) " xml:space="preserve" text-anchor="start" font-family="Arvo, sans-serif" font-size="24" id="svg_26" y="152.779805" x="76.275392" stroke-opacity="null" stroke-width="0" fill="#e6e6e6">简</text>
  <text xml:space="preserve" text-anchor="start" font-family="Arvo, sans-serif" font-size="141" id="svg_27" y="331.758651" x="334.300973" stroke-opacity="null" stroke-width="0" stroke="null" fill="#333333">繁</text>
 </g>
</svg>