<svg width="64" height="64" xmlns="http://www.w3.org/2000/svg"><path fill="none" d="M-1-1h582v402H-1z"/><g><path fill="#656d78" d="M45.009 47.831l2.83-2.82 1.41-1.42 12.58 12.58a4.008 4.008 0 0 1 0 5.66 4.008 4.008 0 0 1-5.66 0l-12.58-12.58 1.42-1.42z"/><path fill="#ccd1d9" d="M47.839 45.011l-2.83 2.82-4.51-4.511c.51-.43 1-.88 1.47-1.35.48-.479.931-.97 1.351-1.479l4.51 4.51.009.01z"/><path fill="#e6e9ed" d="M39.849 39.851c8.2-8.2 8.2-21.5 0-29.7-8.199-8.199-21.5-8.199-29.699 0-8.2 8.2-8.2 21.5 0 29.7 8.199 8.2 21.499 8.2 29.699 0zm2.12-31.821c8.891 8.891 9.351 23.03 1.351 32.461-.42.51-.87 1-1.351 1.479-.47.47-.96.92-1.47 1.35-9.42 8-23.57 7.551-32.47-1.35-9.37-9.37-9.37-24.57 0-33.94 9.37-9.369 24.57-9.38 33.94 0z"/><path fill="#5d9cec" d="M39.849 10.15c8.2 8.2 8.2 21.5 0 29.7-8.199 8.2-21.5 8.2-29.699 0-8.2-8.2-8.2-21.5 0-29.7 8.199-8.199 21.499-8.199 29.699 0zm.15 14.851c0-8.28-6.72-15-15-15s-15 6.72-15 15c0 8.279 6.72 15 15 15s15-6.721 15-15z"/><path fill="#e6e9ed" d="M24.999 10.001c8.28 0 15 6.72 15 15 0 8.279-6.72 15-15 15s-15-6.721-15-15c0-8.28 6.72-15 15-15z"/><path d="M25 46.998a21.858 21.858 0 0 1-15.557-6.443A21.85 21.85 0 0 1 3 24.999 21.854 21.854 0 0 1 9.443 9.443C13.599 5.288 19.123 3 25 3s11.401 2.288 15.557 6.443c8.577 8.577 8.577 22.534 0 31.111A21.855 21.855 0 0 1 25 46.998zM25 5a19.872 19.872 0 0 0-14.143 5.857C7.08 14.634 5 19.656 5 24.999s2.08 10.365 5.857 14.142 8.8 5.857 14.143 5.857 10.365-2.08 14.143-5.857c7.798-7.798 7.798-20.485 0-28.283A19.869 19.869 0 0 0 25 5z"/><path stroke="null" d="M25 49.998c-6.678 0-12.956-2.6-17.678-7.321S.001 31.677 0 24.999A24.836 24.836 0 0 1 7.322 7.322C12.045 2.601 18.323 0 25 0c6.678 0 12.956 2.601 17.678 7.322 9.747 9.747 9.747 25.606 0 35.354-4.723 4.722-11.001 7.322-17.678 7.322zM25 2A22.857 22.857 0 0 0 8.736 8.736 22.851 22.851 0 0 0 2 24.999c.001 6.144 2.393 11.92 6.736 16.264S18.856 47.998 25 47.998a22.856 22.856 0 0 0 16.264-6.735c8.967-8.968 8.967-23.56 0-32.526A22.85 22.85 0 0 0 25 2z"/><path d="M45.006 48.834a.997.997 0 0 1-.707-.293l-4.508-4.509a.999.999 0 1 1 1.414-1.414l4.508 4.509a.999.999 0 0 1-.707 1.707zM47.834 46.006a.997.997 0 0 1-.707-.293l-4.514-4.515a.999.999 0 1 1 1.414-1.414l4.514 4.515a.999.999 0 0 1-.707 1.707z"/><path d="M43.592 50.248a.999.999 0 0 1-.707-1.707l5.656-5.658a.999.999 0 1 1 1.414 1.414l-5.656 5.658a.997.997 0 0 1-.707.293z"/><path d="M56.172 62.828a.997.997 0 0 1-.707-.293l-12.58-12.58a.999.999 0 1 1 1.414-1.414l12.58 12.58a.999.999 0 0 1-.707 1.707zM61.828 57.173a.997.997 0 0 1-.707-.293l-12.58-12.583a.999.999 0 1 1 1.414-1.414l12.58 12.583a.999.999 0 0 1-.707 1.707z"/><path d="M59.001 64a4.969 4.969 0 0 1-3.536-1.465.999.999 0 1 1 1.414-1.414c1.133 1.132 3.11 1.136 4.241 0a2.98 2.98 0 0 0 .88-2.122c0-.801-.312-1.553-.878-2.118a.999.999 0 1 1 1.412-1.416c.945.943 1.466 2.198 1.466 3.534s-.521 2.592-1.465 3.536A4.963 4.963 0 0 1 59.001 64zM25 41c-8.822 0-16-7.178-16-16S16.178 9 25 9s16 7.178 16 16-7.178 16-16 16zm0-30c-7.72 0-14 6.28-14 14s6.28 14 14 14 14-6.28 14-14-6.28-14-14-14z"/><text stroke="null" transform="matrix(.5187 .5187 -.45359 .45359 45.358 2.755)" font-family="Helvetica, Arial, sans-serif" font-size="1" y="51.445" x="44.402" fill-opacity="null" stroke-opacity="null" stroke-width="0">@thun888.xyz</text></g></svg>