<svg height="512" viewBox="0 0 64 64" width="512" xmlns="http://www.w3.org/2000/svg"><path d="M32 8a23.982 23.982 0 0 0-20.781 12h10.39C23.685 12.828 27.559 8 32 8z" fill="#57a4ff"/><path d="M42.391 20h10.39A23.982 23.982 0 0 0 32 8c4.441 0 8.315 4.828 10.391 12z" fill="#d1e7f8"/><path d="M21.609 20h-10.39A23.874 23.874 0 0 0 8 32h12a43.609 43.609 0 0 1 1.609-12z" fill="#2488ff"/><path d="M42.391 20A43.609 43.609 0 0 1 44 32h12a23.874 23.874 0 0 0-3.219-12z" fill="#bddbff"/><path d="M21.609 44h-10.39A23.982 23.982 0 0 0 32 56c-4.441 0-8.315-4.828-10.391-12z" fill="#005ece"/><path d="M20 32H8a23.874 23.874 0 0 0 3.219 12h10.39A43.609 43.609 0 0 1 20 32z" fill="#006df0"/><path d="M52.781 44A23.874 23.874 0 0 0 56 32H44a43.609 43.609 0 0 1-1.609 12z" fill="#9bc9ff"/><path d="M42.391 44C40.315 51.172 36.441 56 32 56a23.982 23.982 0 0 0 20.781-12z" fill="#57a4ff"/><path d="M42.391 20C40.315 12.828 36.441 8 32 8v12z" fill="#c2dff6"/><path d="M32 8c-4.441 0-8.315 4.828-10.391 12H32z" fill="#9bc9ff"/><path d="M32 20H21.609A43.609 43.609 0 0 0 20 32h12z" fill="#57a4ff"/><path d="M32 32h12a43.609 43.609 0 0 0-1.609-12H32z" fill="#9bc9ff"/><path d="M21.609 44c2.076 7.172 5.95 12 10.391 12V44z" fill="#006df0"/><path d="M32 56c4.441 0 8.315-4.828 10.391-12H32z" fill="#2488ff"/><path d="M32 32v12h10.391A43.609 43.609 0 0 0 44 32z" fill="#57a4ff"/><path d="M32 32H20a43.609 43.609 0 0 0 1.609 12H32z" fill="#2488ff"/><g fill="#006df0"><path d="M59.37 26.066c.136.63.252 1.277.345 1.923a1 1 0 0 0 .989.858 1.019 1.019 0 0 0 .144-.011A1 1 0 0 0 61.7 27.7c-.1-.692-.224-1.385-.37-2.059a1 1 0 0 0-1.955.421zM12.543 11.5a1 1 0 0 0 .671-.259c.478-.433.98-.857 1.492-1.259A1 1 0 0 0 13.47 8.4c-.549.431-1.087.886-1.6 1.35a1 1 0 0 0 .672 1.741zM3.41 27.012a1.036 1.036 0 0 0 .206.021 1 1 0 0 0 .978-.8c.132-.631.288-1.269.466-1.9a1 1 0 0 0-1.925-.533c-.19.672-.358 1.356-.5 2.032a1 1 0 0 0 .775 1.18zM17.433 7.919a1 1 0 0 0 .5-.136 28.1 28.1 0 0 1 1.718-.922 1 1 0 1 0-.882-1.795c-.622.306-1.242.639-1.843.989a1 1 0 0 0 .5 1.864zM8.5 16.008a1 1 0 0 0 .811-.413 28.15 28.15 0 0 1 1.2-1.543 1 1 0 1 0-1.538-1.282 30.405 30.405 0 0 0-1.286 1.652 1 1 0 0 0 .224 1.4.989.989 0 0 0 .589.186zM5.068 21.177a.988.988 0 0 0 .405.087 1 1 0 0 0 .914-.6c.262-.59.55-1.182.855-1.758a1 1 0 0 0-1.768-.936 30.24 30.24 0 0 0-.915 1.884 1 1 0 0 0 .509 1.323zM55.694 17.076a1 1 0 0 0 1.694-1.066 30.477 30.477 0 0 0-1.178-1.73 1 1 0 1 0-1.61 1.183c.382.525.752 1.067 1.094 1.613zM52.075 12.481a1 1 0 1 0 1.434-1.394c-.482-.5-.989-.983-1.51-1.449a1 1 0 0 0-1.334 1.49c.486.435.96.891 1.41 1.353zM4.617 37.876a28.04 28.04 0 0 1-.341-1.922 1 1 0 1 0-1.98.281c.1.692.221 1.385.365 2.059a1 1 0 0 0 .977.791.937.937 0 0 0 .21-.022 1 1 0 0 0 .769-1.187zM45.921 7.7c.562.322 1.12.67 1.659 1.031a1 1 0 1 0 1.12-1.66 27.885 27.885 0 0 0-1.778-1.1 1 1 0 0 0-1 1.735zM57.543 20.513c.265.587.513 1.195.739 1.806a1 1 0 1 0 1.875-.694c-.241-.654-.508-1.3-.79-1.933a1 1 0 1 0-1.824.821zM34.842 4.142c.641.065 1.292.153 1.934.263a1 1 0 1 0 .338-1.971 29.975 29.975 0 0 0-2.073-.282 1 1 0 1 0-.2 1.99zM28.88 4.166a.977.977 0 0 0 .108-.006c.649-.07 1.3-.117 1.947-.139a1 1 0 0 0 .965-1.036 1.012 1.012 0 0 0-1.035-.964c-.69.025-1.392.076-2.088.15a1 1 0 0 0 .105 2zM40.567 5.334c.62.2 1.24.422 1.84.663a1 1 0 1 0 .744-1.856c-.644-.259-1.308-.5-1.972-.711a1 1 0 0 0-.612 1.9zM22.958 5.438a1.027 1.027 0 0 0 .312-.05c.612-.2 1.243-.384 1.876-.543a1 1 0 0 0-.489-1.94 30.38 30.38 0 0 0-2.011.582 1 1 0 0 0 .312 1.951zM4 32q0-.956.063-1.894a1 1 0 0 0-.931-1.064.985.985 0 0 0-1.064.93c-.045.67-.068 1.352-.068 2v.085a.974.974 0 0 0 1 .969A1.026 1.026 0 0 0 4 32zM40.675 58.63c-.62.2-1.252.383-1.876.538a1 1 0 1 0 .482 1.941 29.01 29.01 0 0 0 2.013-.577 1 1 0 1 0-.619-1.9zM50.743 52.8c-.482.435-.986.858-1.5 1.258a1 1 0 1 0 1.232 1.574 29.857 29.857 0 0 0 1.6-1.345 1 1 0 0 0-1.332-1.487zM46.016 56.246c-.562.325-1.141.634-1.722.919a1 1 0 0 0 .44 1.9.986.986 0 0 0 .439-.1c.623-.3 1.243-.635 1.845-.983a1 1 0 0 0-1-1.731zM54.659 48.453a31.122 31.122 0 0 1-1.2 1.541 1 1 0 1 0 1.533 1.284c.449-.537.883-1.091 1.288-1.649a1 1 0 1 0-1.617-1.176zM61 30.879a1 1 0 0 0-1 1V32c0 .649-.022 1.307-.067 1.952a1 1 0 0 0 .929 1.067h.07a1 1 0 0 0 1-.931C61.976 33.4 62 32.7 62 32v-.121a1 1 0 0 0-1-1zM60.579 37.048a1 1 0 0 0-1.184.772c-.133.63-.291 1.267-.471 1.9a1 1 0 0 0 .686 1.236.986.986 0 0 0 .277.039 1 1 0 0 0 .961-.725c.192-.673.361-1.357.5-2.033a1 1 0 0 0-.769-1.189zM58.91 42.879a1 1 0 0 0-1.32.507 29.037 29.037 0 0 1-.859 1.757 1 1 0 0 0 .414 1.352.987.987 0 0 0 .468.117 1 1 0 0 0 .884-.53c.329-.618.639-1.251.919-1.883a1 1 0 0 0-.506-1.32zM8.273 46.874a1 1 0 0 0-1.693 1.064c.369.588.764 1.171 1.173 1.731a1 1 0 1 0 1.616-1.178 28.493 28.493 0 0 1-1.096-1.617zM18.028 56.271a28.626 28.626 0 0 1-1.658-1.036 1 1 0 1 0-1.118 1.659c.579.39 1.177.763 1.776 1.109a1 1 0 1 0 1-1.732zM11.884 51.477a1 1 0 0 0-1.437 1.391c.485.5.991.988 1.507 1.452a1 1 0 0 0 1.337-1.487 29.01 29.01 0 0 1-1.407-1.356zM6.433 43.434c-.266-.592-.513-1.2-.735-1.807a1 1 0 0 0-1.878.688c.239.65.5 1.3.787 1.936a1 1 0 0 0 .914.592 1 1 0 0 0 .912-1.409zM34.954 59.846c-.646.068-1.3.113-1.947.135a1 1 0 0 0 .033 2h.035a29.285 29.285 0 0 0 2.088-.145 1 1 0 0 0-.209-1.989zM29.1 59.852a28.893 28.893 0 0 1-1.935-.267 1 1 0 0 0-.341 1.971c.689.119 1.386.215 2.072.285a.9.9 0 0 0 .1.006 1 1 0 0 0 .1-2zM23.377 58.647c-.618-.2-1.236-.423-1.838-.666a1 1 0 1 0-.747 1.855c.645.26 1.308.5 1.97.715a1.032 1.032 0 0 0 .308.049 1 1 0 0 0 .307-1.953z"/></g></svg>