<svg width="32" height="32" viewBox="0 0 32 32" xmlns="http://www.w3.org/2000/svg"><defs><linearGradient x1="27.197%" y1="50.002%" x2="123.34%" y2="50.002%" id="a"><stop stop-color="#FF4C54" offset="0%"/><stop stop-color="#BE3F45" offset="100%"/></linearGradient><linearGradient x1="82.519%" y1="50.004%" x2="-32.477%" y2="50.004%" id="b"><stop stop-color="#FF4C54" offset="0%"/><stop stop-color="#BE3F45" offset="100%"/></linearGradient><linearGradient x1="101.952%" y1="65.67%" x2="-34.336%" y2="-73.085%" id="c"><stop stop-color="#BE3F45" stop-opacity="0" offset="0%"/><stop stop-color="#BE3F45" offset="100%"/></linearGradient><linearGradient x1="49.999%" y1="38.525%" x2="49.999%" y2="88.331%" id="d"><stop stop-color="#FFB92D" offset="0%"/><stop stop-color="#F59500" offset="100%"/></linearGradient><linearGradient x1="49.998%" y1="41.018%" x2="49.998%" y2="86.682%" id="e"><stop stop-color="#FFB92D" offset="0%"/><stop stop-color="#F59500" offset="100%"/></linearGradient><linearGradient x1="34.825%" y1="59.105%" x2="-85.952%" y2="-53.883%" id="f"><stop stop-color="#BE3F45" stop-opacity="0" offset="0%"/><stop stop-color="#BE3F45" offset="100%"/></linearGradient><linearGradient x1="38.496%" y1="50.002%" x2="88.312%" y2="50.002%" id="g"><stop stop-color="#FFF465" offset="0%"/><stop stop-color="#FFE600" offset="100%"/></linearGradient><linearGradient x1="38.523%" y1="50.004%" x2="88.311%" y2="50.004%" id="h"><stop stop-color="#FFF465" offset="0%"/><stop stop-color="#FFE600" offset="100%"/></linearGradient><linearGradient x1="55.499%" y1="50.827%" x2="44.021%" y2="49.255%" id="i"><stop stop-color="#C3C3C3" offset="0%"/><stop stop-color="#F2F2F2" offset="100%"/></linearGradient><linearGradient x1="53.718%" y1="50.704%" x2="46.72%" y2="49.551%" id="j"><stop stop-color="#C3C3C3" offset="0%"/><stop stop-color="#F2F2F2" offset="100%"/></linearGradient><linearGradient x1="53.384%" y1="50.748%" x2="47.077%" y2="49.657%" id="k"><stop stop-color="#C3C3C3" offset="0%"/><stop stop-color="#F2F2F2" offset="100%"/></linearGradient></defs><g fill-rule="nonzero" fill="none"><path d="M6.01 14.556H1.127l.86 2.423c.462 1.305.699 2.68.699 4.064v.254a2.441 2.441 0 1 0 4.883 0v-.254c0-1.385-.237-2.759-.7-4.064l-.859-2.423z" fill="url(#a)" transform="translate(0 4)"/><path d="M3.56 17.656c.353.997.534 2.047.534 3.104v.215a.986.986 0 0 0 1.972 0v-.215c0-1.058-.18-2.107-.534-3.104l-.312-.66a.772.772 0 0 0-.698-.442h-.264c-.567 0-.94.59-.698 1.102z" fill="url(#b)" transform="translate(0 4)"/><path d="M6.01 14.556H1.127l.064.18 6.378 6.378v-.071c0-1.385-.237-2.759-.7-4.063l-.859-2.424z" fill="url(#c)" transform="translate(0 4)"/><path d="M0 12.838V8.083c0-1.171.95-2.121 2.122-2.121h6.687c1.172 0 2.122.95 2.122 2.121v4.755c0 1.172-.95 2.122-2.122 2.122H2.122A2.122 2.122 0 0 1 0 12.838z" fill="url(#d)" transform="translate(0 4)"/><path d="M20.361 20.187a117.328 117.328 0 0 0-12.723-5.322 1.464 1.464 0 0 1-.98-1.381V7.438c0-.622.393-1.176.98-1.381 4.348-1.524 8.587-3.3 12.723-5.322a1.465 1.465 0 0 1 2.1 1.137 70.645 70.645 0 0 1 0 17.178 1.465 1.465 0 0 1-2.1 1.137z" fill="url(#e)" transform="translate(0 4)"/><path d="M22.127 19.818L8.175 5.866c-.18.064-.358.128-.537.19-.587.206-.98.76-.98 1.382v6.046c0 .622.393 1.175.98 1.381 4.348 1.524 8.587 3.3 12.723 5.322.635.31 1.352.118 1.765-.369z" fill="url(#f)" transform="translate(0 4)"/><path d="M22.455 1.079a1.224 1.224 0 0 0-1.748-.945 1.18 1.18 0 0 0-.633 1.285l.014.088a73.645 73.645 0 0 1-.014 17.996 1.18 1.18 0 0 0 .633 1.284 1.224 1.224 0 0 0 1.748-.944c.8-6.249.8-12.515 0-18.765z" fill="url(#g)" transform="translate(0 4)"/><path d="M7.013 15.7c-.752 0-1.363-.61-1.363-1.363V6.585a1.363 1.363 0 1 1 2.726 0v7.752c0 .753-.61 1.363-1.363 1.363z" fill="url(#h)" transform="translate(0 4)"/><path d="M24.562 13.93a1.029 1.029 0 0 1-1.015-1.204c.085-.49.143-1.01.172-1.545.058-1.045-.001-2.067-.167-2.88a1.029 1.029 0 1 1 2.017-.41c.202.993.273 2.17.205 3.403-.034.614-.101 1.214-.2 1.782a1.03 1.03 0 0 1-1.012.854z" fill="url(#i)" transform="translate(0 4)"/><path d="M26.963 15.842a1.029 1.029 0 0 1-.961-1.396c.446-1.167.723-2.55.803-4.002.08-1.45-.043-2.846-.357-4.04a1.029 1.029 0 1 1 1.99-.523c.368 1.398.514 3.016.422 4.677-.092 1.66-.415 3.258-.935 4.622a1.03 1.03 0 0 1-.962.662z" fill="url(#j)" transform="translate(0 4)"/><path d="M29.292 17.688a1.029 1.029 0 0 1-.9-1.527c.885-1.598 1.413-3.538 1.527-5.611.115-2.07-.196-4.039-.898-5.69a1.029 1.029 0 1 1 1.893-.806c.825 1.94 1.192 4.226 1.06 6.61-.132 2.38-.748 4.626-1.781 6.493-.188.34-.54.53-.901.53z" fill="url(#k)" transform="translate(0 4)"/></g></svg>