<svg width="32" height="32" viewBox="0 0 32 32" xmlns="http://www.w3.org/2000/svg" xmlns:xlink="http://www.w3.org/1999/xlink"><defs><path d="M2.715 5.941S-.478 9.282.077 14.718c.555 5.437 3.997 9.923 15.476 9.923 11.479 0 14.366-5.992 14.434-10.92.068-4.926-2.151-7.123-3.193-7.87 0 0 .007-3.537-.327-5.406 0 0-1.767-.21-5.582 1.977 0 0-5.207-.51-12.147.062 0 0-2.916-1.948-5.853-2.458 0 0-.487 3.067-.17 5.915z" id="a"/><filter x="-5%" y="-6.1%" width="110%" height="112.2%" filterUnits="objectBoundingBox" id="b"><feGaussianBlur stdDeviation="1.5" in="SourceAlpha" result="shadowBlurInner1"/><feOffset in="shadowBlurInner1" result="shadowOffsetInner1"/><feComposite in="shadowOffsetInner1" in2="SourceAlpha" operator="arithmetic" k2="-1" k3="1" result="shadowInnerInner1"/><feColorMatrix values="0 0 0 0 1 0 0 0 0 1 0 0 0 0 1 0 0 0 0.9 0" in="shadowInnerInner1"/></filter></defs><g fill-rule="nonzero" fill="none"><g transform="translate(1 4)"><use fill="#333" xlink:href="#a"/><use fill="#000" filter="url(#b)" xlink:href="#a"/></g><path d="M8.855 15.323h14.243s4.036-.454 4.036 6.15c.033 5.81-10.636 5.435-10.636 5.435s-11.684.464-11.69-5.986c-.016-5.825 4.047-5.6 4.047-5.6z" fill="#E2B89F"/><path d="M21.8 17.974c.915 0 1.658 1.193 1.658 2.66 0 1.471-.743 2.663-1.658 2.663-.915 0-1.658-1.192-1.658-2.662-.001-1.468.743-2.661 1.658-2.661z" fill="#9C584F"/><path d="M21.8 23.774c-1.198 0-2.136-1.379-2.136-3.14 0-1.76.938-3.138 2.136-3.138 1.198 0 2.136 1.379 2.136 3.139 0 1.76-.94 3.14-2.136 3.14zm0-5.323c-.56 0-1.18.897-1.18 2.184 0 1.288.62 2.184 1.18 2.184.558 0 1.18-.896 1.18-2.184 0-1.287-.622-2.184-1.18-2.184z" fill="#FFF"/><path d="M10.341 17.974c.916 0 1.659 1.193 1.659 2.66 0 1.471-.743 2.663-1.659 2.663-.915 0-1.658-1.192-1.658-2.662 0-1.468.743-2.661 1.658-2.661z" fill="#9C584F"/><path d="M10.341 23.774c-1.197 0-2.135-1.379-2.135-3.14 0-1.76.938-3.138 2.135-3.138 1.198 0 2.136 1.379 2.136 3.139 0 1.76-.938 3.14-2.136 3.14zm0-5.323c-.558 0-1.18.897-1.18 2.184 0 1.288.622 2.184 1.18 2.184.559 0 1.181-.896 1.181-2.184 0-1.287-.622-2.184-1.18-2.184z" fill="#FFF"/><path d="M15.41 23.812s.477-1.354 1.06-.085c0 0-.437.283-.273.95l1.364.522h-3.084l1.222-.55s.176-1.007-.288-.837z" fill="#9C584F"/></g></svg>