<svg width="512" height="512" xmlns="http://www.w3.org/2000/svg"><path fill="none" d="M-1-1h582v402H-1z"/><g><g fill="#E6E6E6"><path d="M376.541 317.052c-9.09 12.486-19.397 25.025-30.867 36.495l-39.369-118.936h116.797s-16.47 40.973-46.561 82.441z"/><path d="M376.541 317.052c30.092-41.468 46.561-82.441 46.561-82.441H306.305l-43.821-132.345h207.848c17.472 0 31.642 14.17 31.642 31.642V466.32c0 17.472-14.17 31.642-31.642 31.642H281.399l82.883-88.23-18.608-56.186c11.469-11.468 21.776-24.008 30.867-36.494z"/></g><path fill="#3A5BBC" d="M364.282 409.734l-82.883 88.229-29.356-88.229z"/><path stroke="null" fill="#518EF8" d="M345.674 354.103l18.608 56.186H41.669c-17.486 0-31.642-14.17-31.642-31.642V46.235c0-17.472 14.157-31.642 31.642-31.642h191.606l29.209 88.23 43.821 132.345 39.369 118.935z"/><path fill="#333" d="M470.261 90.925H269.658L242.723 9.57a10.025 10.025 0 0 0-9.518-6.875H41.6C18.623 2.695-.07 21.388-.07 44.364v332.412c0 22.976 18.693 41.668 41.67 41.668h203.144l27.073 81.369a10.026 10.026 0 0 0 9.513 6.86h188.932c22.976 0 41.67-18.692 41.67-41.668V132.594c-.002-22.976-18.695-41.67-41.67-41.67zM19.982 376.775V44.365c0-11.92 9.697-21.616 21.616-21.616h184.364l110.024 332.32c.011.037.025.072.036.11l14.307 43.215H41.6c-11.92 0-21.617-9.698-21.617-21.617zm245.894 41.67h75.162l-55.503 59.085-19.659-59.085zm226.002 46.56c0 11.92-9.697 21.617-21.616 21.617H304.504l67.015-71.34-.004-.003c.293-.311.571-.64.825-.992a10.025 10.025 0 0 0 1.39-9.022l-16.687-50.405-43.569-131.59-37.178-112.292h193.965c11.92 0 21.616 9.697 21.616 21.616v332.412h.001z"/><text stroke="null" transform="matrix(5.67295 0 0 5.91532 -356.385 -637.532)" font-family="Arvo, sans-serif" font-size="24" y="152.78" x="76.275" stroke-opacity="null" stroke-width="0" fill="#e6e6e6">简</text><text font-family="Arvo, sans-serif" font-size="141" y="331.759" x="334.301" stroke-opacity="null" stroke-width="0" stroke="null" fill="#333">繁</text></g></svg>